<svg xmlns="http://www.w3.org/2000/svg" viewBox="0 0 192 192">
  <defs>
    <linearGradient id="bg" x1="0" y1="0" x2="1" y2="1">
      <stop offset="0" stop-color="#2563eb" />
      <stop offset="1" stop-color="#1d4ed8" />
    </linearGradient>
    <linearGradient id="body" x1="0" y1="0" x2="0" y2="1">
      <stop offset="0" stop-color="#0f172a" />
      <stop offset="1" stop-color="#1e293b" />
    </linearGradient>
    <linearGradient id="accent" x1="0" y1="0" x2="1" y2="1">
      <stop offset="0" stop-color="#38bdf8" />
      <stop offset="1" stop-color="#0ea5e9" />
    </linearGradient>
  </defs>
  <rect width="192" height="192" rx="36" fill="url(#bg)" />
  <g transform="translate(48 28)">
    <rect x="40" y="0" width="16" height="28" rx="8" fill="#0f172a" />
    <rect x="18" y="20" width="78" height="118" rx="16" fill="url(#body)" />
    <rect x="28" y="32" width="58" height="38" rx="8" fill="url(#accent)" />
    <rect x="32" y="80" width="50" height="6" rx="3" fill="#1f2937" opacity="0.8" />
    <rect x="32" y="92" width="50" height="6" rx="3" fill="#1f2937" opacity="0.8" />
    <rect x="32" y="104" width="36" height="6" rx="3" fill="#1f2937" opacity="0.8" />
    <circle cx="80" cy="106" r="7" fill="#38bdf8" />
    <circle cx="80" cy="122" r="7" fill="#38bdf8" opacity="0.75" />
    <path
      d="M58 14 L58 6 C58 3 60 1 63 1 H69"
      stroke="#38bdf8"
      stroke-width="4"
      stroke-linecap="round"
      fill="none"
      opacity="0.8"
    />
  </g>
  <rect
    x="48"
    y="28"
    width="96"
    height="140"
    rx="24"
    fill="none"
    stroke="rgba(255,255,255,0.16)"
    stroke-width="4"
  />
</svg>
